<svg width="14" height="14" viewBox="0 0 14 14" fill="none" xmlns="http://www.w3.org/2000/svg">
<g clip-path="url(#clip0_12_7805)">
<path d="M7.46675 11.4334C7.61464 11.5443 7.78677 11.6185 7.96895 11.6498C8.15113 11.6812 8.33816 11.6688 8.51461 11.6136C8.69106 11.5585 8.85189 11.4623 8.98384 11.3328C9.11579 11.2033 9.21509 11.0443 9.27354 10.869C9.332 10.6936 9.34795 10.5068 9.32007 10.3241C9.29219 10.1414 9.22129 9.96785 9.1132 9.81788C9.00511 9.66791 8.86293 9.54578 8.69838 9.46154C8.53382 9.3773 8.35161 9.33337 8.16675 9.33337H1.16675" stroke="#0A0A0A" stroke-width="1.16667" stroke-linecap="round" stroke-linejoin="round"/>
<path d="M10.2084 4.66671C10.3576 4.46784 10.5551 4.3104 10.7822 4.20934C11.0093 4.10828 11.2585 4.06694 11.506 4.08927C11.7536 4.11159 11.9914 4.19683 12.1968 4.33689C12.4021 4.47695 12.5683 4.66718 12.6795 4.88952C12.7906 5.11186 12.8431 5.35893 12.8319 5.60726C12.8208 5.85559 12.7463 6.09694 12.6156 6.3084C12.4849 6.51986 12.3024 6.6944 12.0852 6.81545C11.8681 6.9365 11.6237 7.00004 11.3751 7.00004H1.16675" stroke="#0A0A0A" stroke-width="1.16667" stroke-linecap="round" stroke-linejoin="round"/>
<path d="M5.71675 2.56671C5.86464 2.45579 6.03677 2.38161 6.21895 2.35026C6.40113 2.31892 6.58816 2.33132 6.76461 2.38644C6.94106 2.44156 7.10189 2.53782 7.23384 2.66729C7.36579 2.79676 7.46509 2.95573 7.52354 3.13111C7.582 3.30648 7.59795 3.49324 7.57007 3.67598C7.54219 3.85873 7.47129 4.03224 7.3632 4.1822C7.25511 4.33217 7.11293 4.4543 6.94838 4.53854C6.78382 4.62278 6.60161 4.66671 6.41675 4.66671H1.16675" stroke="#0A0A0A" stroke-width="1.16667" stroke-linecap="round" stroke-linejoin="round"/>
</g>
<defs>
<clipPath id="clip0_12_7805">
<rect width="14" height="14" fill="white"/>
</clipPath>
</defs>
</svg>
