<svg width="18" height="18" viewBox="0 0 18 18" fill="none" xmlns="http://www.w3.org/2000/svg">
<g clip-path="url(#clip0_12_8146)">
<path d="M7.48706 15.3125C7.61506 15.5342 7.79916 15.7183 8.02084 15.8462C8.24253 15.9742 8.494 16.0416 8.74998 16.0416C9.00596 16.0416 9.25743 15.9742 9.47911 15.8462C9.7008 15.7183 9.88489 15.5342 10.0129 15.3125" stroke="#45556C" stroke-width="1.45833" stroke-linecap="round" stroke-linejoin="round"/>
<path d="M2.3785 11.1752C2.28324 11.2796 2.22038 11.4094 2.19756 11.5489C2.17474 11.6884 2.19294 11.8315 2.24995 11.9608C2.30696 12.0901 2.40032 12.2001 2.51868 12.2773C2.63704 12.3545 2.77529 12.3957 2.91662 12.3958H14.5833C14.7246 12.3959 14.8629 12.3549 14.9813 12.2778C15.0998 12.2007 15.1932 12.0908 15.2504 11.9616C15.3076 11.8324 15.3259 11.6893 15.3033 11.5498C15.2807 11.4103 15.218 11.2804 15.1229 11.1759C14.1531 10.1762 13.125 9.11383 13.125 5.83331C13.125 4.67299 12.664 3.56019 11.8435 2.73972C11.0231 1.91925 9.91028 1.45831 8.74996 1.45831C7.58963 1.45831 6.47684 1.91925 5.65636 2.73972C4.83589 3.56019 4.37496 4.67299 4.37496 5.83331C4.37496 9.11383 3.3461 10.1762 2.3785 11.1752Z" stroke="#45556C" stroke-width="1.45833" stroke-linecap="round" stroke-linejoin="round"/>
</g>
<defs>
<clipPath id="clip0_12_8146">
<rect width="17.5" height="17.5" fill="white"/>
</clipPath>
</defs>
</svg>
