<svg width="14" height="14" viewBox="0 0 14 14" fill="none" xmlns="http://www.w3.org/2000/svg">
<path d="M4.95841 8.45833C5.34519 8.45833 5.71612 8.30469 5.98961 8.0312C6.2631 7.75771 6.41675 7.38677 6.41675 7C6.41675 6.195 6.12508 5.83333 5.83341 5.25C5.20808 3.99992 5.70275 2.88517 7.00008 1.75C7.29175 3.20833 8.16675 4.60833 9.33341 5.54167C10.5001 6.475 11.0834 7.58333 11.0834 8.75C11.0834 9.28623 10.9778 9.81721 10.7726 10.3126C10.5674 10.808 10.2666 11.2582 9.88743 11.6374C9.50826 12.0165 9.05812 12.3173 8.56271 12.5225C8.06729 12.7277 7.53631 12.8333 7.00008 12.8333C6.46385 12.8333 5.93287 12.7277 5.43746 12.5225C4.94204 12.3173 4.4919 12.0165 4.11273 11.6374C3.73356 11.2582 3.43278 10.808 3.22757 10.3126C3.02237 9.81721 2.91675 9.28623 2.91675 8.75C2.91675 8.07742 3.16933 7.41183 3.50008 7C3.50008 7.38677 3.65373 7.75771 3.92722 8.0312C4.20071 8.30469 4.57164 8.45833 4.95841 8.45833Z" stroke="#0A0A0A" stroke-width="1.16667" stroke-linecap="round" stroke-linejoin="round"/>
</svg>
