<svg width="50" height="62" viewBox="0 0 50 62" fill="none" xmlns="http://www.w3.org/2000/svg">
<g filter="url(#filter0_d_12_7838)">
<path d="M27 23V33.54C27.7626 33.9803 28.3586 34.6599 28.6955 35.4734C29.0325 36.2869 29.0916 37.1888 28.8637 38.0394C28.6358 38.8899 28.1336 39.6415 27.435 40.1775C26.7365 40.7136 25.8805 41.0041 25 41.0041C24.1195 41.0041 23.2635 40.7136 22.565 40.1775C21.8664 39.6415 21.3642 38.8899 21.1363 38.0394C20.9084 37.1888 20.9675 36.2869 21.3045 35.4734C21.6415 34.6599 22.2374 33.9803 23 33.54V23C23 22.4696 23.2107 21.9609 23.5858 21.5858C23.9609 21.2107 24.4696 21 25 21C25.5304 21 26.0391 21.2107 26.4142 21.5858C26.7893 21.9609 27 22.4696 27 23Z" stroke="#FF6467" stroke-width="2" stroke-linecap="round" stroke-linejoin="round"/>
</g>
<defs>
<filter id="filter0_d_12_7838" x="-7" y="-1" width="64" height="64" filterUnits="userSpaceOnUse" color-interpolation-filters="sRGB">
<feFlood flood-opacity="0" result="BackgroundImageFix"/>
<feColorMatrix in="SourceAlpha" type="matrix" values="0 0 0 0 0 0 0 0 0 0 0 0 0 0 0 0 0 0 127 0" result="hardAlpha"/>
<feOffset/>
<feGaussianBlur stdDeviation="10"/>
<feColorMatrix type="matrix" values="0 0 0 0 0.972549 0 0 0 0 0.443137 0 0 0 0 0.443137 0 0 0 1 0"/>
<feBlend mode="normal" in2="BackgroundImageFix" result="effect1_dropShadow_12_7838"/>
<feBlend mode="normal" in="SourceGraphic" in2="effect1_dropShadow_12_7838" result="shape"/>
</filter>
</defs>
</svg>
