<svg width="28" height="28" viewBox="0 0 28 28" fill="none" xmlns="http://www.w3.org/2000/svg">
<g clip-path="url(#clip0_22_468)">
<path d="M14.875 19.25V12.25H11.375V14H13.125V19.25H10.5V21H17.5V19.25H14.875Z" fill="#FF6900"/>
<path d="M14 7C13.7404 7 13.4867 7.07698 13.2708 7.2212C13.055 7.36542 12.8867 7.5704 12.7874 7.81023C12.6881 8.05006 12.6621 8.31396 12.7127 8.56856C12.7634 8.82316 12.8884 9.05702 13.0719 9.24058C13.2555 9.42413 13.4893 9.54914 13.7439 9.59978C13.9985 9.65042 14.2624 9.62443 14.5023 9.52509C14.7421 9.42575 14.9471 9.25752 15.0913 9.04169C15.2355 8.82585 15.3125 8.57209 15.3125 8.3125C15.3125 7.9644 15.1742 7.63056 14.9281 7.38442C14.6819 7.13828 14.3481 7 14 7Z" fill="#FF6900"/>
<path d="M14 26.25C11.5772 26.25 9.20877 25.5316 7.19427 24.1855C5.17977 22.8395 3.60965 20.9263 2.68248 18.6879C1.75531 16.4495 1.51272 13.9864 1.98539 11.6101C2.45805 9.23388 3.62475 7.05114 5.33795 5.33795C7.05114 3.62475 9.23388 2.45805 11.6101 1.98539C13.9864 1.51272 16.4495 1.75531 18.6879 2.68248C20.9263 3.60965 22.8395 5.17977 24.1855 7.19427C25.5316 9.20877 26.25 11.5772 26.25 14C26.25 17.2489 24.9594 20.3647 22.6621 22.6621C20.3647 24.9594 17.2489 26.25 14 26.25ZM14 3.50001C11.9233 3.50001 9.89323 4.11582 8.16652 5.26957C6.4398 6.42333 5.09399 8.06321 4.29927 9.98183C3.50455 11.9005 3.29662 14.0117 3.70176 16.0485C4.1069 18.0853 5.10693 19.9562 6.57538 21.4246C8.04384 22.8931 9.91476 23.8931 11.9516 24.2983C13.9884 24.7034 16.0996 24.4955 18.0182 23.7007C19.9368 22.906 21.5767 21.5602 22.7304 19.8335C23.8842 18.1068 24.5 16.0767 24.5 14C24.5 11.2152 23.3938 8.54452 21.4246 6.57538C19.4555 4.60625 16.7848 3.50001 14 3.50001Z" fill="#FF6900"/>
</g>
<defs>
<clipPath id="clip0_22_468">
<rect width="28" height="28" fill="white"/>
</clipPath>
</defs>
</svg>
