<svg width="18" height="18" viewBox="0 0 18 18" fill="none" xmlns="http://www.w3.org/2000/svg">
<path d="M16.0415 12.3375V14.525C16.0424 14.7281 16.0008 14.9291 15.9194 15.1151C15.8381 15.3012 15.7187 15.4682 15.5691 15.6055C15.4195 15.7428 15.2428 15.8473 15.0504 15.9124C14.8581 15.9774 14.6542 16.0016 14.452 15.9833C12.2082 15.7395 10.0529 14.9728 8.15925 13.7448C6.39746 12.6253 4.90377 11.1316 3.78426 9.36978C2.55195 7.46753 1.78506 5.30176 1.54571 3.04791C1.52749 2.84627 1.55146 2.64304 1.61608 2.45117C1.6807 2.2593 1.78457 2.08299 1.92106 1.93346C2.05756 1.78393 2.2237 1.66446 2.40889 1.58266C2.59409 1.50086 2.7943 1.45851 2.99676 1.45832H5.18426C5.53812 1.45484 5.88119 1.58015 6.1495 1.8109C6.41781 2.04165 6.59306 2.36209 6.64259 2.71249C6.73492 3.41254 6.90615 4.09989 7.15301 4.76145C7.25111 5.02243 7.27234 5.30607 7.21419 5.57876C7.15603 5.85144 7.02093 6.10174 6.82488 6.29999L5.89884 7.22603C6.93685 9.05153 8.44834 10.563 10.2738 11.601L11.1999 10.675C11.3981 10.4789 11.6484 10.3438 11.9211 10.2857C12.1938 10.2275 12.4774 10.2488 12.7384 10.3469C13.4 10.5937 14.0873 10.765 14.7874 10.8573C15.1416 10.9073 15.4651 11.0857 15.6963 11.3586C15.9276 11.6315 16.0504 11.9799 16.0415 12.3375Z" stroke="#9810FA" stroke-width="1.45833" stroke-linecap="round" stroke-linejoin="round"/>
</svg>
