<svg width="14" height="14" viewBox="0 0 14 14" fill="none" xmlns="http://www.w3.org/2000/svg">
<g clip-path="url(#clip0_12_7967)">
<path d="M11.6666 5.83332C11.6666 8.74591 8.4355 11.7792 7.3505 12.7161C7.24942 12.7921 7.12638 12.8332 6.99992 12.8332C6.87345 12.8332 6.75041 12.7921 6.64934 12.7161C5.56434 11.7792 2.33325 8.74591 2.33325 5.83332C2.33325 4.59565 2.82492 3.40866 3.70009 2.53349C4.57526 1.65832 5.76224 1.16666 6.99992 1.16666C8.2376 1.16666 9.42458 1.65832 10.2998 2.53349C11.1749 3.40866 11.6666 4.59565 11.6666 5.83332Z" stroke="#90A1B9" stroke-width="1.16667" stroke-linecap="round" stroke-linejoin="round"/>
<path d="M7 7.58334C7.9665 7.58334 8.75 6.79984 8.75 5.83334C8.75 4.86685 7.9665 4.08334 7 4.08334C6.0335 4.08334 5.25 4.86685 5.25 5.83334C5.25 6.79984 6.0335 7.58334 7 7.58334Z" stroke="#90A1B9" stroke-width="1.16667" stroke-linecap="round" stroke-linejoin="round"/>
</g>
<defs>
<clipPath id="clip0_12_7967">
<rect width="14" height="14" fill="white"/>
</clipPath>
</defs>
</svg>
