<svg width="14" height="14" viewBox="0 0 14 14" fill="none" xmlns="http://www.w3.org/2000/svg">
<g clip-path="url(#clip0_12_7789)">
<path d="M2.33337 8.69111C1.89998 8.24832 1.57303 7.7127 1.37731 7.12483C1.18158 6.53696 1.1222 5.91226 1.20366 5.29804C1.28513 4.68382 1.5053 4.0962 1.84751 3.57968C2.18971 3.06316 2.64498 2.63128 3.17881 2.31677C3.71265 2.00226 4.31106 1.81335 4.92872 1.76437C5.54637 1.71538 6.16708 1.8076 6.74382 2.03403C7.32055 2.26047 7.8382 2.61518 8.25755 3.0713C8.67689 3.52743 8.98694 4.073 9.1642 4.6667H10.2084C10.7716 4.66663 11.3199 4.84772 11.7723 5.18321C12.2247 5.51869 12.5572 5.99079 12.7207 6.52975C12.8841 7.06872 12.8699 7.64598 12.6801 8.17625C12.4904 8.70653 12.135 9.1617 11.6667 9.47453" stroke="#0A0A0A" stroke-width="1.16667" stroke-linecap="round" stroke-linejoin="round"/>
<path d="M9.33325 8.16663V11.6666" stroke="#0A0A0A" stroke-width="1.16667" stroke-linecap="round" stroke-linejoin="round"/>
<path d="M4.66675 8.16663V11.6666" stroke="#0A0A0A" stroke-width="1.16667" stroke-linecap="round" stroke-linejoin="round"/>
<path d="M7 9.33337V12.8334" stroke="#0A0A0A" stroke-width="1.16667" stroke-linecap="round" stroke-linejoin="round"/>
</g>
<defs>
<clipPath id="clip0_12_7789">
<rect width="14" height="14" fill="white"/>
</clipPath>
</defs>
</svg>
