<svg width="19" height="19" viewBox="0 0 19 19" fill="none" xmlns="http://www.w3.org/2000/svg">
<g clip-path="url(#clip0_12_8117)">
<path d="M3.06247 11.4071C2.49364 10.8259 2.06453 10.1229 1.80764 9.35133C1.55074 8.57975 1.47281 7.75983 1.57973 6.95367C1.68665 6.14751 1.97563 5.37625 2.42478 4.69832C2.87392 4.02038 3.47145 3.45355 4.17211 3.04075C4.87278 2.62796 5.65819 2.38002 6.46886 2.31573C7.27954 2.25143 8.09421 2.37247 8.85118 2.66966C9.60815 2.96686 10.2876 3.43242 10.838 4.03108C11.3883 4.62974 11.7953 5.34581 12.0279 6.12503H13.3984C14.1376 6.12495 14.8573 6.36262 15.451 6.80295C16.0448 7.24327 16.4812 7.8629 16.6958 8.57029C16.9103 9.27769 16.8917 10.0353 16.6426 10.7313C16.3935 11.4273 15.9272 12.0247 15.3125 12.4353" stroke="#45556C" stroke-width="1.53125" stroke-linecap="round" stroke-linejoin="round"/>
<path d="M12.25 10.7188V15.3125" stroke="#45556C" stroke-width="1.53125" stroke-linecap="round" stroke-linejoin="round"/>
<path d="M6.125 10.7188V15.3125" stroke="#45556C" stroke-width="1.53125" stroke-linecap="round" stroke-linejoin="round"/>
<path d="M9.1875 12.25V16.8438" stroke="#45556C" stroke-width="1.53125" stroke-linecap="round" stroke-linejoin="round"/>
</g>
<defs>
<clipPath id="clip0_12_8117">
<rect width="18.375" height="18.375" fill="#45556C"/>
</clipPath>
</defs>
</svg>
